<?xml version="1.0" encoding="UTF-8"?>
<svg id="Layer_1" xmlns="http://www.w3.org/2000/svg" version="1.1" viewBox="0 0 432 288">
  <!-- Generator: Adobe Illustrator 29.0.1, SVG Export Plug-In . SVG Version: 2.1.0 Build 192)  -->
  <defs>
    <style>
      .st0, .st1 {
        fill: #122c29;
      }

      .st1 {
        font-family: Teachers-Regular, Teachers;
        font-size: 10.75px;
        letter-spacing: .02em;
      }
    </style>
  </defs>
  <g>
    <polygon class="st0" points="164.85 143.08 164.85 127.7 174.98 127.7 174.98 127.29 164.85 127.29 164.85 117.68 176.69 117.68 176.69 117.27 164.85 117.27 163.06 117.27 162 117.27 162 143.49 163.06 143.49 164.85 143.49 177.04 143.49 177.04 143.08 164.85 143.08"/>
    <path class="st0" d="M200.45,125.68l2.81-.69v18.5h-2.81v-17.82Z"/>
    <path class="st0" d="M218.37,124.55c-2.82,0-5.83,1.36-6.9,4.39v-12.52l-2.78.65v26.19h2.78v-4.44c1.05,3.47,3.8,4.68,6.11,4.68,4.81,0,8.96-4.02,8.96-9.51s-3.74-9.44-8.17-9.44ZM217.31,142.98c-2.57,0-5.84-1.89-5.84-7.41v-4.15c0-4.39,3.36-6.25,5.9-6.25,4.39,0,6.28,4.12,6.28,8.89,0,5.01-2.33,8.92-6.35,8.92Z"/>
    <polygon class="st0" points="240.58 143.08 240.58 127.7 250.71 127.7 250.71 127.29 240.58 127.29 240.58 117.68 252.43 117.68 252.43 117.27 240.58 117.27 238.8 117.27 237.73 117.27 237.73 143.49 238.8 143.49 240.58 143.49 252.77 143.49 252.77 143.08 240.58 143.08"/>
    <path class="st0" d="M268.73,133.99c-1.03-2.4-2.71-3.05-4.15-3.05-.83,0-1.66.19-2.47.49l9.41-6.39h-.69l-11.16,7.6v-15.94l-2.78.69v26.12h2.78v-10.42l.77-.53c.77-.45,1.58-.79,2.32-.79,1.2,0,2.33.48,3.23,2.54l3.88,9.2h2.99l-4.12-9.51Z"/>
    <path class="st0" d="M288.78,125.3v11.6c0,4.05-3.4,5.9-5.63,5.9-3.71,0-4.98-2.16-4.98-6.63v-11.57l-2.78.69v10.57c0,5.53,2.64,7.62,6.66,7.62,2.5,0,5.62-1.28,6.73-4.24v4h2.78v-18.64l-2.78.69Z"/>
    <path class="st0" d="M305.13,124.35c-2.67,0-4.95,1.74-5.94,4.89v-4.38l-2.81.69v17.95h2.81v-12.05c.31-3.99,2.85-6.69,5.87-6.69.69,0,1.54.14,2.09.31l.14-.41c-.58-.17-1.48-.31-2.16-.31Z"/>
    <polygon class="st0" points="337.78 143.07 337.78 116.65 334.93 116.65 334.93 143.49 335.13 143.49 337.78 143.49 350.03 143.49 350.03 143.07 337.78 143.07"/>
    <polygon class="st0" points="390.02 140.63 396 124.96 395.52 124.96 389.78 140.02 383.88 124.96 382.96 124.96 382.48 124.96 380.83 124.96 381.66 127.09 376.72 140.03 370.84 124.96 367.78 124.96 375.03 143.49 375.88 143.49 381.9 127.71 388.07 143.49 388.93 143.49 390.02 140.64 390.03 140.64 390.02 140.63"/>
    <path class="st0" d="M323.96,137.33c.01-.11.01-.23.01-.34,0-.2,0-.4-.02-.59-.02-.19-.04-.39-.07-.58-.03-.19-.07-.38-.12-.56-.05-.18-.1-.37-.17-.54-.06-.18-.13-.35-.21-.52-.08-.17-.16-.33-.25-.5-.09-.16-.19-.32-.3-.47-.11-.15-.22-.3-.34-.44-.12-.14-.24-.27-.38-.4-.13-.13-.27-.25-.41-.36-.14-.11-.29-.22-.45-.32-.16-.1-.32-.19-.48-.28-.17-.08-.34-.16-.51-.23-.18-.07-.36-.13-.54-.18-.19-.05-.38-.09-.57-.12-.2-.03-.4-.05-.6-.07-.07,0-.14,0-.22,0-1.06-.06-2.12.18-3.1.59.97-.42,2.04-.62,3.09-.56,3.45.11,5.67,3.1,5.24,6.43-.78,3.64-3.38,5.25-5.98,5.25-4.22,0-6.93-3.31-6.93-9.26,0-1,.08-1.94.23-2.82h12.37c1.06-2.96-1.34-6.41-6.79-6.44-5.38,0-9.96,3.94-9.96,9.99,0,3.01,1.34,5.33,2.76,6.99,1.68,1.61,3.96,2.48,6.35,2.48.21,0,.43,0,.64-.02.21-.01.42-.03.62-.05.2-.02.4-.05.6-.08.19-.03.39-.07.58-.11.19-.04.37-.09.56-.14.18-.05.36-.11.53-.17.17-.06.34-.13.51-.2.16-.07.33-.15.48-.23.16-.08.31-.16.46-.26.15-.09.29-.18.43-.28.14-.1.28-.2.41-.31.13-.11.26-.22.38-.34.12-.12.24-.24.35-.37.11-.13.22-.26.33-.39.1-.14.2-.28.3-.42.1-.14.19-.29.27-.44.09-.15.17-.31.24-.47.08-.16.15-.33.21-.49.07-.17.13-.34.18-.52.06-.18.11-.36.15-.54.03-.11.06-.22.08-.35ZM316.47,124.45c2.39,0,3.52,1.55,3.52,3.38,0,1.72-1.06,2.22-2.71,2.22h-6.3c.71-3.39,2.6-5.6,5.49-5.6Z"/>
    <path class="st0" d="M203.52,121.13c-.57-.98-2.01-1.17-3.07-.66-.82.39-1.55.86-7.12,5.52l-9.39,6.65v-15.94l-2.78.69v26.12h2.78v-10.42l.77-.53c.77-.45,1.58-.79,2.32-.79,1.2,0,2.33.48,3.23,2.54l3.88,9.2h2.99l-4.12-9.51c-1.03-2.4-2.71-3.05-4.15-3.05-.83,0-1.66.19-2.47.49l7.33-5.2h.04s3.64-2.31,6.19-2.48c.67-.05,1.61,1.05,3.17-.09.43-.31,1.05-1.44.43-2.52Z"/>
    <path class="st0" d="M365.17,137.37v-5.97c0-4.81-3.16-6.9-7.14-6.9-4.19.03-6.59,2.51-6.59,5.53,0,1.65.65,2.95,1.41,3.64h0c.46.45,1,.81,1.6,1.08-3.01,1.22-4.04,3.06-4.04,4.83,0,2.47,1.99,3.84,4.57,3.84,4.18,0,6.51-2.43,7.38-5.25.03,3.42,2.18,4.95,5.22,5.25l.03-.31c-1.78-.38-2.44-2.03-2.44-5.73ZM362.36,135.45c0,4.22-2.81,7.04-5.7,7.04-2.13,0-3.4-1.48-3.4-3.47,0-1.35.58-2.85,2.38-3.89,2,.46,4.34.14,6.1-.66-1.71.64-3.84.88-5.69.45,1.4-.69,3.42-1.14,6.32-1.14v1.68ZM362.36,133.36c-3.21.12-5.62.56-7.41,1.2-1.27-.54-2.31-1.48-2.84-2.93-.16-.48-.25-1.02-.25-1.6,0-2.78,2.16-4.94,5.39-4.91,3.78.07,5.11,2.57,5.11,5.73v2.51Z"/>
  </g>
  <g>
    <g>
      <path class="st0" d="M104.74,122.6c-5.48-3.12-12.21-3.21-17.98-.62-.23.1-.65.27-.68.45-.02.1.03.21.08.3.48.91,1.94,3.65,2.37,4.45.16.38.61.08.92-.05,1.26-.58,2.59-.95,3.98-1.12,4.48-.54,9.19,1.15,11.86,4.87.19.28.31.39.22.46-5.48,2.92-27.92,14.84-28.42,15.11-.02.02-.02.04.01.12.03.07.09.19.18.35.42.77.86,1.66,1.31,2.41,4.11,7.11,13.27,10.45,21.1,8.53,11.5-2.85,17.77-15.71,12.79-26.51-1.63-3.59-4.33-6.89-7.73-8.76l-.03-.02ZM108.25,139.62c.09,8.83-8.92,14.93-17.13,12.53-2.16-.59-4.13-1.7-5.68-3.29-.11-.12-.48-.43-.33-.51,2.04-1.08,17.81-9.48,22.64-12.04l.1.08c.02.05.04.14.07.25.21.96.33,1.98.33,2.94v.04Z"/>
      <path class="st0" d="M87.62,127.95c.14.06.31.04.41-.07.14-.13,0-.25-.14-.54-.18-.34-.44-.83-.73-1.37-.67-1.24-1.47-2.74-1.7-3.16-.04-.07-.09-.11-.18-.1-.18.03-.67.18-.7.43.59.99,1.46,2.11,2.54,4.19.13.23.24.48.47.6h.03Z"/>
      <path class="st0" d="M83.61,123.31c-.3-.07-.78.16-.96.3-.12.09-.07.21,0,.3.56.72,1.35,1.89,2.4,3.78.21.36.42.79.62,1.11.06.08.11.12.19.14.28.04.77-.26.93-.45.1-.13.03-.28-.04-.41-.57-1.08-1.63-2.97-2.7-4.37-.12-.15-.25-.33-.43-.39h-.03Z"/>
      <path class="st0" d="M81.65,124.1c-.35-.06-1.04.2-.81.6.43.62.97,1.22,1.37,1.87,1.02,1.52,1.73,2.98,1.89,3.32.03.05.06.06.14.03.2-.1,1.04-.4.78-.82-.58-1.1-1.74-3.2-2.9-4.64-.12-.15-.26-.32-.44-.36h-.03Z"/>
      <path class="st0" d="M55.68,154.36c5.48,3.12,12.21,3.21,17.98.62.23-.1.65-.27.68-.45.02-.1-.03-.21-.08-.3-.48-.91-1.94-3.65-2.37-4.45-.16-.38-.61-.08-.92.05-1.26.58-2.59.95-3.98,1.12-4.48.54-9.19-1.15-11.86-4.87-.19-.28-.31-.39-.22-.46,5.48-2.92,27.92-14.84,28.42-15.11.02-.02.02-.04-.01-.12-.03-.07-.09-.19-.18-.35-.42-.77-.86-1.66-1.31-2.41-4.11-7.11-13.27-10.45-21.1-8.53-11.5,2.85-17.77,15.71-12.79,26.51,1.63,3.59,4.33,6.89,7.73,8.76l.03.02ZM52.17,137.34c-.09-8.83,8.92-14.93,17.13-12.53,2.16.59,4.13,1.7,5.68,3.29.11.12.48.43.33.51-2.04,1.08-17.81,9.48-22.64,12.04l-.1-.08c-.02-.05-.04-.14-.07-.25-.21-.96-.33-1.98-.33-2.94v-.04Z"/>
      <path class="st0" d="M72.8,149.01c-.14-.06-.31-.04-.41.07-.14.13,0,.25.14.54.18.34.44.83.73,1.37.67,1.24,1.47,2.74,1.7,3.16.04.07.09.11.18.1.18-.03.67-.18.7-.43-.59-.99-1.46-2.11-2.54-4.19-.13-.23-.24-.48-.47-.6h-.03Z"/>
      <path class="st0" d="M76.8,153.64c.3.07.78-.16.96-.3.12-.09.07-.21,0-.3-.56-.72-1.35-1.89-2.4-3.78-.21-.36-.42-.79-.62-1.11-.06-.08-.11-.12-.19-.14-.28-.04-.77.26-.93.45-.1.13-.03.28.04.41.57,1.08,1.63,2.97,2.7,4.37.12.15.25.33.43.39h.03Z"/>
      <path class="st0" d="M78.76,152.85c.35.06,1.04-.2.81-.6-.43-.62-.97-1.22-1.37-1.87-1.02-1.52-1.73-2.98-1.89-3.32-.03-.05-.06-.06-.14-.03-.2.1-1.04.39-.78.82.58,1.1,1.74,3.2,2.9,4.64.12.15.26.32.44.36h.03Z"/>
    </g>
    <g>
      <path class="st0" d="M83.54,109.78h-.02c0,.67-.27,1.27-.7,1.71-.44.44-1.04.71-1.7.71-.66,0-1.27-.27-1.7-.71-.44-.44-.7-1.04-.7-1.71s.27-1.27.7-1.71c.44-.44,1.04-.71,1.7-.71.66,0,1.27.27,1.7.71.44.44.7,1.04.7,1.71h.05c0-.68-.27-1.3-.72-1.75-.44-.45-1.06-.72-1.74-.72-.68,0-1.29.28-1.74.72-.44.45-.72,1.06-.72,1.75s.27,1.3.72,1.75c.44.45,1.06.72,1.74.72.68,0,1.29-.28,1.74-.72.44-.45.72-1.06.72-1.75h-.02Z"/>
      <path class="st0" d="M82.29,109.78h-.02c0,.39-.14.74-.37.99-.23.25-.55.41-.9.41-.35,0-.67-.16-.9-.41-.23-.25-.37-.61-.37-.99s.14-.74.37-.99c.23-.25.55-.41.9-.41.35,0,.67.16.9.41.23.25.37.61.37.99h.04c0-.4-.15-.77-.39-1.03-.24-.26-.57-.43-.94-.43-.37,0-.7.16-.94.43-.24.26-.39.63-.39,1.03s.15.77.39,1.03c.24.26.57.43.94.43.37,0,.7-.16.94-.43.24-.26.39-.63.39-1.03h-.02Z"/>
      <path class="st0" d="M42.03,150.77c-.2.37-1.46,2.33-3.5,2.86-2.19.57-4.71-.56-6.07-2.86h9.57Z"/>
      <path class="st0" d="M42.03,148.97c-.2.14-1.46.85-3.5,1.05-2.19.21-4.71-.2-6.07-1.05h9.57Z"/>
      <path class="st0" d="M42.03,147.71c-.2.07-1.46.43-3.5.52-2.19.1-4.71-.1-6.07-.52h9.57Z"/>
      <polygon class="st0" points="33.05 147.91 37.6 123.01 41.43 147.78 41.48 147.78 37.6 122.72 33 147.9 33.05 147.91"/>
      <polyline class="st0" points="37.12 147.99 37.63 122.97 37.58 122.97 37.07 147.98"/>
      <path class="st0" d="M129.49,150.77c-.2.37-1.46,2.33-3.5,2.86-2.19.57-4.71-.56-6.07-2.86h9.57Z"/>
      <path class="st0" d="M129.49,148.97c-.2.14-1.46.85-3.5,1.05-2.19.21-4.71-.2-6.07-1.05h9.57Z"/>
      <path class="st0" d="M129.49,147.71c-.2.07-1.46.43-3.5.52-2.19.1-4.71-.1-6.07-.52h9.57Z"/>
      <polygon class="st0" points="120.51 147.91 125.06 123.01 128.89 147.78 128.94 147.78 125.06 122.72 120.46 147.9 120.51 147.91"/>
      <polyline class="st0" points="124.58 147.99 125.09 122.97 125.04 122.97 124.53 147.98"/>
      <path class="st0" d="M134.52,116.49c-1.04-1.01-3.54-.15-3.72.77-.12.62.91.87,1.08,1.97.12.74-.22,1.34-.5,1.77-1,1.05-2.39,1.69-3.83,1.97.62-.1,1.25-.24,1.88-.41.86-.25,1.7-.6,2.55-1.01,1.1-.42,2.82-1.63,3-3.34.02-.22.12-1.16-.46-1.72Z"/>
      <path class="st0" d="M30.41,120.58c-.21-.39-.38-.87-.29-1.43.18-1.1,1.2-1.35,1.08-1.97-.18-.92-2.68-1.78-3.72-.77-.58.57-.49,1.5-.46,1.72.18,1.71,1.91,2.92,3.01,3.34.9.45,1.78.83,2.7,1.09.63.17,1.25.31,1.88.41-1.63-.32-3.18-1.09-4.19-2.39Z"/>
      <path class="st0" d="M35.96,123.14c-.45-.04-.9-.09-1.36-.17.45.09.91.14,1.36.17Z"/>
      <g>
        <path class="st0" d="M126.25,123.14h.01s0,0-.01,0h0Z"/>
        <path class="st0" d="M126.1,123.15s.07,0,.11,0c0,0,0,0,0,0-.04,0-.09,0-.13,0,0,0,.01,0,.02,0Z"/>
        <path class="st0" d="M36.12,123.15s.01,0,.02,0c-.06,0-.12,0-.18,0,.05,0,.11,0,.16,0Z"/>
        <path class="st0" d="M126.21,123.14s.02,0,.03,0c.43-.02.87-.08,1.31-.16-.45.07-.89.13-1.34.17Z"/>
        <path class="st0" d="M104.22,114.34c-.53-.32-1.72-1.06-2.23-1.37-3.94-2.37-8.65-3.8-13.26-2.95-.2.05-.99.21-1.17.25-.13.03-.55.16-.69.2-.87.25-1.71.6-2.53.98.26-.51.42-1.07.42-1.68,0-1.01-.41-1.93-1.07-2.6-.66-.66-1.58-1.08-2.59-1.08-1.01,0-1.93.41-2.59,1.08-.66.66-1.07,1.59-1.07,2.6,0,.61.16,1.17.42,1.68-.82-.39-1.65-.73-2.53-.98-.14-.04-.55-.16-.69-.2-.17-.04-.97-.2-1.17-.25-4.61-.85-9.32.58-13.26,2.95-.51.3-1.69,1.04-2.23,1.37-6.64,4.2-13.62,9.31-21.87,8.8,6.86.52,13.58-2.75,19.65-5.7,3.97-1.89,7.97-4.14,12.43-4.48,2.57-.24,5.17.25,7.51,1.33,1.67.85,3.29,1.8,5.24,1.89h0s.09,0,.14,0c.05,0,.09,0,.14,0h0c1.95-.09,3.57-1.05,5.24-1.9,2.34-1.08,4.94-1.57,7.51-1.33,4.46.34,8.46,2.59,12.43,4.48,6.07,2.95,12.8,6.22,19.65,5.7-8.25.5-15.22-4.6-21.87-8.8ZM79.22,107.87c.49-.49,1.15-.79,1.89-.79.74,0,1.41.3,1.89.79.49.49.79,1.16.79,1.91,0,.75-.3,1.42-.79,1.91-.49.49-1.15.79-1.89.79-.74,0-1.41-.3-1.89-.79-.49-.49-.79-1.16-.79-1.91,0-.75.3-1.42.79-1.91Z"/>
      </g>
    </g>
  </g>
  <text class="st1" transform="translate(162 162)"><tspan x="0" y="0">Atlanta, Georgia – EST. 2024</tspan></text>
</svg>