<?xml version="1.0" encoding="UTF-8"?>
<svg id="Layer_1" xmlns="http://www.w3.org/2000/svg" version="1.1" viewBox="0 0 288 288">
  <!-- Generator: Adobe Illustrator 29.0.1, SVG Export Plug-In . SVG Version: 2.1.0 Build 192)  -->
  <defs>
    <style>
      .st0 {
        fill: #122c29;
      }
    </style>
  </defs>
  <g>
    <polygon class="st0" points="38.64 215.62 38.64 201.34 48.04 201.34 48.04 200.96 38.64 200.96 38.64 192.04 49.64 192.04 49.64 191.66 38.64 191.66 36.99 191.66 36 191.66 36 216 36.99 216 38.64 216 49.96 216 49.96 215.62 38.64 215.62"/>
    <path class="st0" d="M71.69,199.46l2.61-.64v17.17h-2.61v-16.54Z"/>
    <path class="st0" d="M88.32,198.41c-2.61,0-5.41,1.26-6.4,4.07v-11.62l-2.58.61v24.31h2.58v-4.12c.98,3.22,3.53,4.35,5.67,4.35,4.46,0,8.32-3.73,8.32-8.83s-3.47-8.76-7.58-8.76ZM87.34,215.52c-2.39,0-5.42-1.75-5.42-6.88v-3.86c0-4.08,3.12-5.8,5.48-5.8,4.08,0,5.83,3.82,5.83,8.25,0,4.65-2.17,8.28-5.89,8.28Z"/>
    <polygon class="st0" points="108.94 215.62 108.94 201.34 118.34 201.34 118.34 200.96 108.94 200.96 108.94 192.04 119.94 192.04 119.94 191.66 108.94 191.66 107.29 191.66 106.3 191.66 106.3 216 107.29 216 108.94 216 120.25 216 120.25 215.62 108.94 215.62"/>
    <path class="st0" d="M135.07,207.17c-.96-2.23-2.52-2.84-3.86-2.84-.77,0-1.54.18-2.3.45l8.73-5.94h-.64l-10.36,7.06v-14.8l-2.58.64v24.25h2.58v-9.67l.72-.49c.72-.41,1.47-.74,2.15-.74,1.12,0,2.17.45,3,2.36l3.6,8.54h2.77l-3.82-8.83Z"/>
    <path class="st0" d="M153.68,199.11v10.77c0,3.76-3.15,5.48-5.23,5.48-3.44,0-4.62-2.01-4.62-6.15v-10.74l-2.58.64v9.81c0,5.13,2.45,7.07,6.18,7.07,2.32,0,5.22-1.19,6.24-3.93v3.71h2.58v-17.3l-2.58.64Z"/>
    <path class="st0" d="M168.85,198.23c-2.47,0-4.6,1.62-5.51,4.53v-4.06l-2.61.64v16.66h2.61v-11.18c.29-3.7,2.65-6.21,5.45-6.21.64,0,1.43.13,1.94.29l.13-.38c-.54-.16-1.37-.29-2.01-.29Z"/>
    <polygon class="st0" points="199.16 215.61 199.16 191.08 196.51 191.08 196.51 216 196.71 216 199.16 216 210.53 216 210.53 215.61 199.16 215.61"/>
    <polygon class="st0" points="247.65 213.34 253.2 198.79 252.76 198.79 247.43 212.78 241.96 198.79 241.1 198.79 240.65 198.79 239.12 198.79 239.89 200.77 235.31 212.79 229.85 198.79 227.01 198.79 233.74 216 234.53 216 240.12 201.35 245.84 216 246.64 216 247.65 213.35 247.66 213.35 247.65 213.34"/>
    <path class="st0" d="M186.33,210.28c.01-.11.01-.21.01-.32,0-.18,0-.37-.02-.55-.01-.18-.04-.36-.07-.54-.03-.18-.07-.35-.11-.52-.04-.17-.1-.34-.15-.51-.06-.16-.12-.33-.2-.48-.07-.16-.15-.31-.24-.46-.08-.15-.18-.29-.28-.43-.1-.14-.2-.27-.31-.4-.11-.13-.23-.25-.35-.37-.12-.12-.25-.23-.38-.34-.13-.11-.27-.21-.42-.3-.14-.09-.29-.18-.45-.26-.15-.08-.31-.15-.48-.21-.17-.06-.33-.12-.5-.16-.17-.05-.35-.09-.53-.11-.18-.03-.37-.05-.56-.06-.07,0-.13,0-.2,0-.99-.05-1.97.16-2.87.55.9-.39,1.89-.58,2.87-.52,3.2.1,5.26,2.88,4.86,5.97-.73,3.38-3.14,4.88-5.55,4.88-3.92,0-6.44-3.07-6.44-8.59,0-.93.07-1.8.22-2.61h11.48c.98-2.74-1.24-5.95-6.3-5.98-5,0-9.25,3.66-9.25,9.28,0,2.79,1.24,4.94,2.56,6.49,1.56,1.5,3.68,2.3,5.9,2.3.2,0,.4,0,.6-.01.19,0,.39-.02.58-.04.19-.02.37-.04.56-.07.18-.03.36-.06.54-.1.17-.04.35-.08.52-.13.17-.05.33-.1.49-.16.16-.06.32-.12.47-.18.15-.07.3-.14.45-.21.14-.07.29-.15.43-.24.14-.08.27-.17.4-.26.13-.09.26-.19.38-.29.12-.1.24-.21.35-.31.11-.11.22-.22.33-.34.11-.12.21-.24.3-.36.1-.13.19-.26.28-.39.09-.13.17-.27.25-.41.08-.14.15-.29.22-.44.07-.15.14-.3.2-.46.06-.16.12-.32.17-.48.05-.17.1-.33.14-.5.03-.1.06-.21.07-.32ZM179.38,198.33c2.22,0,3.27,1.44,3.27,3.14,0,1.6-.98,2.06-2.52,2.06h-5.85c.66-3.15,2.41-5.19,5.1-5.19Z"/>
    <path class="st0" d="M74.54,195.24c-.53-.91-1.86-1.09-2.85-.61-.77.37-1.44.8-6.61,5.12l-8.72,6.17v-14.8l-2.58.64v24.25h2.58v-9.67l.72-.49c.72-.41,1.47-.74,2.15-.74,1.12,0,2.17.45,3,2.36l3.6,8.54h2.77l-3.82-8.83c-.96-2.23-2.52-2.84-3.86-2.84-.77,0-1.54.18-2.3.45l6.8-4.83h.03s3.37-2.14,5.75-2.3c.63-.04,1.49.97,2.94-.09.4-.29.98-1.34.4-2.34Z"/>
    <path class="st0" d="M224.59,210.32v-5.54c0-4.46-2.93-6.4-6.63-6.4-3.89.03-6.12,2.33-6.12,5.13,0,1.53.61,2.74,1.31,3.38h0c.42.42.93.76,1.48,1-2.79,1.13-3.75,2.84-3.75,4.48,0,2.29,1.85,3.57,4.24,3.57,3.88,0,6.04-2.25,6.85-4.88.03,3.17,2.02,4.59,4.84,4.88l.03-.29c-1.66-.35-2.26-1.88-2.26-5.32ZM221.98,208.53c0,3.92-2.61,6.53-5.29,6.53-1.98,0-3.15-1.37-3.15-3.22,0-1.26.53-2.64,2.21-3.61,1.86.43,4.03.13,5.66-.61-1.59.6-3.57.82-5.29.41,1.3-.64,3.18-1.06,5.86-1.06v1.56ZM221.98,206.59c-2.98.11-5.22.52-6.88,1.11-1.18-.5-2.14-1.37-2.64-2.72-.14-.45-.23-.94-.23-1.48,0-2.58,2.01-4.59,5-4.56,3.5.06,4.75,2.39,4.75,5.32v2.33Z"/>
  </g>
  <g>
    <g>
      <path class="st0" d="M179.61,108.27c-8.22-4.69-18.31-4.81-26.97-.92-.34.15-.97.41-1.02.67-.03.15.05.31.12.46.73,1.36,2.91,5.48,3.55,6.68.24.57.91.12,1.38-.08,1.9-.87,3.89-1.43,5.97-1.68,6.72-.81,13.78,1.72,17.79,7.3.28.42.46.58.34.69-8.22,4.37-41.88,22.26-42.63,22.67-.03.03-.03.06.02.19.05.11.14.28.27.53.64,1.16,1.29,2.5,1.97,3.62,6.17,10.66,19.91,15.68,31.66,12.79,17.24-4.27,26.66-23.56,19.19-39.76-2.44-5.39-6.5-10.33-11.59-13.13l-.05-.03ZM184.88,133.8c.14,13.24-13.39,22.39-25.69,18.8-3.24-.88-6.19-2.55-8.52-4.94-.16-.18-.72-.65-.49-.77,3.07-1.62,26.71-14.22,33.96-18.05l.14.12c.03.08.07.21.11.37.32,1.44.5,2.97.49,4.42v.06Z"/>
      <path class="st0" d="M153.93,116.29c.21.09.46.07.62-.1.2-.2,0-.38-.21-.81-.27-.5-.67-1.24-1.1-2.05-1-1.86-2.2-4.11-2.55-4.74-.07-.11-.14-.16-.28-.15-.27.04-1.01.26-1.05.64.88,1.48,2.18,3.17,3.81,6.28.19.34.36.71.71.9l.04.02Z"/>
      <path class="st0" d="M147.92,109.34c-.44-.11-1.17.24-1.44.45-.17.13-.11.31.01.45.84,1.08,2.03,2.84,3.6,5.66.31.53.63,1.19.93,1.67.08.12.17.19.29.21.42.06,1.16-.39,1.4-.67.15-.19.05-.42-.06-.62-.85-1.61-2.44-4.46-4.05-6.56-.18-.23-.37-.5-.64-.58h-.04Z"/>
      <path class="st0" d="M144.98,110.52c-.52-.08-1.56.3-1.22.9.64.94,1.45,1.83,2.06,2.8,1.52,2.27,2.59,4.48,2.84,4.98.05.08.09.09.21.05.3-.15,1.55-.59,1.17-1.22-.86-1.65-2.62-4.79-4.35-6.96-.18-.23-.38-.48-.66-.55h-.05Z"/>
      <path class="st0" d="M106.02,155.91c8.22,4.69,18.31,4.81,26.97.92.34-.15.97-.41,1.02-.67.03-.15-.05-.31-.12-.46-.73-1.36-2.91-5.48-3.55-6.68-.24-.57-.91-.12-1.38.08-1.9.87-3.89,1.43-5.97,1.68-6.72.81-13.78-1.72-17.79-7.3-.28-.42-.46-.58-.34-.69,8.22-4.37,41.88-22.26,42.63-22.67.03-.03.03-.06-.02-.19-.05-.11-.14-.28-.27-.53-.64-1.16-1.29-2.5-1.97-3.62-6.17-10.66-19.91-15.68-31.66-12.79-17.24,4.27-26.66,23.56-19.19,39.76,2.44,5.39,6.5,10.33,11.59,13.13l.05.03ZM100.75,130.38c-.14-13.24,13.39-22.39,25.69-18.8,3.24.88,6.19,2.55,8.52,4.94.16.18.72.65.49.77-3.07,1.62-26.71,14.22-33.96,18.05l-.14-.12c-.03-.08-.07-.21-.11-.37-.32-1.44-.5-2.97-.49-4.42v-.06Z"/>
      <path class="st0" d="M131.7,147.88c-.21-.1-.46-.07-.62.1-.2.2,0,.38.21.81.27.5.67,1.24,1.1,2.05,1,1.86,2.2,4.11,2.55,4.74.07.11.14.16.28.15.27-.04,1.01-.26,1.05-.64-.88-1.48-2.18-3.17-3.81-6.28-.19-.34-.36-.71-.71-.9l-.04-.02Z"/>
      <path class="st0" d="M137.71,154.83c.44.11,1.17-.24,1.44-.45.17-.13.11-.31-.01-.45-.84-1.08-2.03-2.84-3.6-5.66-.31-.53-.63-1.19-.93-1.67-.08-.12-.17-.19-.29-.21-.42-.06-1.16.39-1.4.67-.15.19-.05.42.06.62.85,1.61,2.44,4.46,4.05,6.56.18.23.37.5.64.58h.04Z"/>
      <path class="st0" d="M140.65,153.65c.52.08,1.56-.3,1.22-.9-.64-.94-1.45-1.83-2.06-2.8-1.52-2.27-2.59-4.48-2.84-4.98-.05-.08-.09-.09-.21-.05-.3.15-1.55.59-1.17,1.22.86,1.65,2.62,4.79,4.35,6.96.18.23.38.48.66.55h.05Z"/>
    </g>
    <g>
      <path class="st0" d="M147.81,89.04h-.04c0,1-.4,1.91-1.06,2.57-.65.66-1.55,1.06-2.55,1.06-1,0-1.9-.41-2.55-1.06-.65-.66-1.06-1.56-1.06-2.57s.4-1.91,1.06-2.57c.65-.66,1.55-1.06,2.55-1.06,1,0,1.9.41,2.55,1.06.65.66,1.06,1.56,1.06,2.57h.07c0-1.02-.41-1.95-1.08-2.62-.67-.67-1.59-1.09-2.6-1.09-1.02,0-1.94.41-2.6,1.09-.67.67-1.08,1.6-1.08,2.62s.41,1.95,1.08,2.62c.67.67,1.59,1.09,2.6,1.09,1.02,0,1.94-.41,2.6-1.09.67-.67,1.08-1.6,1.08-2.62h-.04Z"/>
      <path class="st0" d="M145.93,89.04h-.03c0,.58-.21,1.11-.56,1.49-.35.38-.83.62-1.36.62-.53,0-1.01-.24-1.36-.62-.35-.38-.56-.91-.56-1.49s.21-1.11.56-1.49c.35-.38.83-.62,1.36-.62.53,0,1.01.24,1.36.62.35.38.56.91.56,1.49h.07c0-.6-.22-1.15-.58-1.54-.36-.4-.86-.64-1.4-.64-.55,0-1.04.24-1.4.64-.36.4-.58.94-.58,1.54s.22,1.15.58,1.54c.36.4.86.64,1.4.64.55,0,1.04-.24,1.4-.64.36-.4.58-.94.58-1.54h-.03Z"/>
      <path class="st0" d="M85.54,150.53c-.29.56-2.2,3.5-5.24,4.29-3.29.85-7.06-.84-9.11-4.29h14.36Z"/>
      <path class="st0" d="M85.54,147.82c-.29.2-2.2,1.28-5.24,1.57-3.29.31-7.06-.31-9.11-1.57h14.36Z"/>
      <path class="st0" d="M85.54,145.94c-.29.1-2.2.64-5.24.78-3.29.16-7.06-.15-9.11-.78h14.36Z"/>
      <polygon class="st0" points="72.08 146.24 78.9 108.89 84.65 146.05 84.72 146.03 78.91 108.45 72.01 146.22 72.08 146.24"/>
      <polyline class="st0" points="78.18 146.35 78.95 108.83 78.88 108.82 78.11 146.35"/>
      <path class="st0" d="M216.73,150.53c-.29.56-2.2,3.5-5.24,4.29-3.29.85-7.06-.84-9.11-4.29h14.36Z"/>
      <path class="st0" d="M216.73,147.82c-.29.2-2.2,1.28-5.24,1.57-3.29.31-7.06-.31-9.11-1.57h14.36Z"/>
      <path class="st0" d="M216.73,145.94c-.29.1-2.2.64-5.24.78-3.29.16-7.06-.15-9.11-.78h14.36Z"/>
      <polygon class="st0" points="203.26 146.24 210.09 108.89 215.84 146.05 215.91 146.03 210.09 108.45 203.19 146.22 203.26 146.24"/>
      <polyline class="st0" points="209.37 146.35 210.14 108.83 210.06 108.82 209.29 146.35"/>
      <path class="st0" d="M224.27,99.11c-1.56-1.51-5.32-.22-5.58,1.15-.18.93,1.36,1.31,1.63,2.96.18,1.1-.33,2.01-.74,2.65-1.5,1.58-3.58,2.53-5.75,2.96.94-.15,1.88-.35,2.81-.61,1.3-.37,2.55-.89,3.82-1.52,1.65-.63,4.23-2.44,4.5-5,.03-.33.18-1.74-.69-2.58Z"/>
      <path class="st0" d="M68.12,105.24c-.31-.58-.58-1.31-.44-2.14.27-1.65,1.8-2.03,1.63-2.96-.26-1.37-4.02-2.66-5.58-1.15-.88.85-.73,2.26-.69,2.58.27,2.57,2.87,4.38,4.52,5.01,1.35.67,2.67,1.24,4.05,1.63.94.26,1.88.46,2.81.61-2.44-.48-4.78-1.63-6.29-3.59Z"/>
      <path class="st0" d="M76.44,109.08c-.68-.06-1.36-.14-2.03-.25.68.13,1.36.22,2.03.25Z"/>
      <g>
        <path class="st0" d="M211.87,109.08h.02s-.01,0-.02,0h0Z"/>
        <path class="st0" d="M211.65,109.09c.05,0,.11,0,.16,0,0,0,0,0,0,0-.07,0-.13,0-.2.01.01,0,.02,0,.03,0Z"/>
        <path class="st0" d="M76.68,109.09s.02,0,.03,0c-.09,0-.18,0-.27-.01.08,0,.16.01.24.01Z"/>
        <path class="st0" d="M211.82,109.08s.03,0,.05,0c.65-.04,1.31-.12,1.96-.25-.67.11-1.34.19-2.01.25Z"/>
        <path class="st0" d="M178.82,95.89c-.8-.48-2.58-1.59-3.34-2.05-5.91-3.55-12.98-5.7-19.89-4.43-.3.07-1.49.31-1.75.37-.2.05-.82.24-1.03.3-1.31.38-2.56.9-3.79,1.48.39-.76.63-1.6.63-2.51,0-1.52-.61-2.9-1.61-3.9-.99-1-2.37-1.62-3.88-1.62-1.51,0-2.89.62-3.88,1.62-.99,1-1.61,2.38-1.61,3.9,0,.91.24,1.76.63,2.51-1.23-.58-2.48-1.1-3.79-1.48-.21-.06-.83-.25-1.03-.3-.26-.06-1.45-.3-1.75-.37-6.91-1.27-13.98.88-19.89,4.43-.76.45-2.54,1.56-3.34,2.05-9.97,6.3-20.42,13.96-32.8,13.21,10.28.79,20.37-4.12,29.48-8.55,5.95-2.83,11.96-6.21,18.64-6.72,3.86-.37,7.75.38,11.26,2,2.5,1.27,4.93,2.71,7.86,2.83h0c.07.01.14,0,.21,0,.07,0,.14,0,.21,0h0c2.93-.14,5.36-1.58,7.86-2.85,3.51-1.61,7.4-2.36,11.26-2,6.68.51,12.69,3.89,18.64,6.72,9.11,4.43,19.2,9.33,29.48,8.55-12.37.75-22.83-6.91-32.8-13.21ZM141.33,86.18c.73-.73,1.73-1.18,2.84-1.18,1.11,0,2.11.45,2.84,1.18.73.73,1.18,1.74,1.18,2.86,0,1.12-.45,2.13-1.18,2.86-.73.73-1.73,1.18-2.84,1.18-1.11,0-2.11-.45-2.84-1.18-.73-.73-1.18-1.74-1.18-2.86,0-1.12.45-2.13,1.18-2.86Z"/>
      </g>
    </g>
  </g>
</svg>